<svg xmlns="http://www.w3.org/2000/svg" xmlns:xlink="http://www.w3.org/1999/xlink" width="1080" zoomAndPan="magnify" viewBox="0 0 810 809.999993" height="1080" preserveAspectRatio="xMidYMid meet" version="1.0"><defs><g/><clipPath id="d989e4e229"><path d="M 38.25 0 L 771.75 0 C 781.894531 0 791.625 4.03125 798.796875 11.203125 C 805.96875 18.375 810 28.105469 810 38.25 L 810 771.75 C 810 781.894531 805.96875 791.625 798.796875 798.796875 C 791.625 805.96875 781.894531 810 771.75 810 L 38.25 810 C 28.105469 810 18.375 805.96875 11.203125 798.796875 C 4.03125 791.625 0 781.894531 0 771.75 L 0 38.25 C 0 28.105469 4.03125 18.375 11.203125 11.203125 C 18.375 4.03125 28.105469 0 38.25 0 Z M 38.25 0 " clip-rule="nonzero"/></clipPath></defs><g clip-path="url(#d989e4e229)"><path stroke-linecap="butt" transform="matrix(0.75, 0, 0, 0.75, 0.0000035, 0.00002)" fill="none" stroke-linejoin="miter" d="M 50.999998 -0.0000266667 L 1029.000047 -0.0000266667 C 1042.526089 -0.0000266667 1055.500048 5.374974 1065.062549 14.937474 C 1074.625049 24.499975 1080.00005 37.473934 1080.00005 50.999976 L 1080.00005 1029.000025 C 1080.00005 1042.526067 1074.625049 1055.500026 1065.062549 1065.062527 C 1055.500048 1074.625027 1042.526089 1080.000028 1029.000047 1080.000028 L 50.999998 1080.000028 C 37.473956 1080.000028 24.499997 1074.625027 14.937496 1065.062527 C 5.374996 1055.500026 -0.00000466667 1042.526067 -0.00000466667 1029.000025 L -0.00000466667 50.999976 C -0.00000466667 37.473934 5.374996 24.499975 14.937496 14.937474 C 24.499997 5.374974 37.473956 -0.0000266667 50.999998 -0.0000266667 Z M 50.999998 -0.0000266667 " stroke="#000000" stroke-width="60" stroke-opacity="1" stroke-miterlimit="4"/></g><g fill="#000000" fill-opacity="1"><g transform="translate(145.55859, 649.991639)"><g><path d="M 306.796875 0 L 174.078125 0 L 11.34375 -458.859375 L 168.734375 -458.859375 L 260.765625 -152.0625 Z M 366.15625 -60.03125 L 506.875 -458.859375 L 356.140625 -458.859375 L 300.78125 -276.109375 Z M 366.15625 -60.03125 "/></g></g></g></svg>